:SAMPLES-PER-SECOND 30
:FULLY-SPECIFIED
:DEGREES
432
root  -65.5554 38.5431 -0.872904 -152.5 7.60265 175.595
RightUpLeg  -56.8519 -10.5188 5.35176
RightLeg  35.1943 -5.44047 -4.37054
RightFoot  -6.13416 0.212388 -5.62516
RightToes  0.000482159 0.542163 -0.142577
Spine  64.7735 -3.50694 6.91866
Spine1  12.6119 1.93107 -3.58022
HEad  -20.9916 -12.3343 7.10994
LeftShoulder1  9.63152 -26.826 -25.3673
LeftArm  -64.8354 -67.6947 11.1996
LeftForeArm  2.36315 -10.1046 -0.850461
LeftHand  -0.25398 0.0180481 5.50724
RightShoulder  1.19234 8.40501 1.8356
RightArm  -62.5407 71.4906 -3.86951
RightForeArm  -19.4918 10.925 4.78363
RightHand  -1.00218 9.74686 -8.16212
LeftUpLeg  -60.1363 26.5076 -23.6788
LeftLeg  27.5816 2.47608 1.74772
LeftFoot  1.44104 -0.392504 3.43307
LeftToes  1.06247e-005 4.65854e-005 -8.18501e-006
433
root  -66.0453 38.327 -0.932565 -150.738 8.20006 175.711
RightUpLeg  -59.8351 -9.96986 4.39487
RightLeg  36.7226 -5.50057 -4.65381
RightFoot  -5.25566 0.180577 -4.03469
RightToes  0.000482159 0.542163 -0.142577
Spine  66.1421 -3.84448 6.76603
Spine1  11.9986 2.06338 -4.46429
HEad  -21.7288 -12.4748 7.21869
LeftShoulder1  9.45927 -27.241 -24.3229
LeftArm  -72.8786 -68.0979 19.2038
LeftForeArm  1.4034 -10.3153 -0.283334
LeftHand  -0.25398 0.0180481 5.50724
RightShoulder  0.861416 7.76705 -0.871462
RightArm  -71.8487 71.1262 -12.2632
RightForeArm  -20.7228 10.2458 3.90774
RightHand  -0.899885 9.45175 -7.5161
LeftUpLeg  -62.8241 25.3597 -25.1304
LeftLeg  29.2799 3.24574 2.3167
LeftFoot  0.20403 -0.48403 4.77359
LeftToes  1.06247e-005 4.65854e-005 -8.18501e-006
434
root  -66.4168 38.0894 -0.990912 -149.014 8.21494 175.969
RightUpLeg  -62.6167 -10.5737 5.11097
RightLeg  37.9933 -5.23422 -4.64498
RightFoot  -5.03489 0.227747 -4.75834
RightToes  0.000482159 0.542163 -0.142577
Spine  67.1311 -3.69621 6.36677
Spine1  11.8515 1.66693 -3.48794
HEad  -22.3188 -11.959 6.91591
LeftShoulder1  9.23673 -26.8453 -23.9862
LeftArm  -80.5961 -68.0736 26.446
LeftForeArm  0.744684 -11.1515 0.193416
LeftHand  -0.25398 0.0180481 5.50724
RightShoulder  0.48039 7.17307 -4.44659
RightArm  -80.11 70.7572 -18.2721
RightForeArm  -21.0144 10.0168 2.78506
RightHand  -0.813552 9.16593 -6.9654
LeftUpLeg  -65.5144 24.0188 -26.0071
LeftLeg  31.1984 3.84496 2.8614
LeftFoot  -0.765533 -0.561054 6.10234
LeftToes  1.06247e-005 4.65854e-005 -8.18501e-006
435
root  -66.648 37.8496 -1.03818 -147.514 8.04366 175.837
RightUpLeg  -64.9535 -10.746 5.19928
RightLeg  39.2097 -5.33299 -4.92995
RightFoot  -5.43698 0.26064 -5.75037
RightToes  0.000482159 0.542163 -0.142577
Spine  68.1005 -3.37216 5.6971
Spine1  11.4858 1.05402 -2.38318
HEad  -22.6059 -11.4473 7.36077
LeftShoulder1  8.85188 -26.229 -23.3088
LeftArm  -86.5068 -67.8508 31.9981
LeftForeArm  0.270105 -11.8532 0.454358
LeftHand  -0.25398 0.0180481 5.50724
RightShoulder  0.230069 6.80047 -7.04417
RightArm  -85.8491 70.0381 -21.7973
RightForeArm  -20.7022 10.4054 1.86845
RightHand  -0.732478 8.9308 -6.41197
LeftUpLeg  -67.8186 22.7803 -26.9957
LeftLeg  32.8437 4.08868 3.19464
LeftFoot  -1.63205 -0.588847 7.03873
LeftToes  1.06247e-005 4.65854e-005 -8.18501e-006
436
root  -66.8 37.6317 -1.06719 -146.439 7.97775 175.693
RightUpLeg  -66.7673 -10.2878 4.49697
RightLeg  40.5159 -5.71466 -5.4987
RightFoot  -5.83019 0.209495 -5.16381
RightToes  0.000482159 0.542163 -0.142577
Spine  69.3828 -3.07628 5.1453
Spine1  10.6495 0.883099 -2.02916
HEad  -22.7708 -11.5217 8.18943
LeftShoulder1  8.60312 -26.0896 -22.5765
LeftArm  -90.5399 -67.5009 36.6639
LeftForeArm  -0.172525 -11.999 0.517613
LeftHand  -0.25398 0.0180481 5.50724
RightShoulder  0.0880948 6.47369 -8.60024
RightArm  -88.4872 68.8261 -23.2915
RightForeArm  -20.2562 10.8887 1.33248
RightHand  -0.605642 8.69685 -5.46543
LeftUpLeg  -69.5794 22.0731 -27.996
LeftLeg  34.1254 4.10442 3.34828
LeftFoot  -2.60765 -0.56967 7.65334
LeftToes  1.06247e-005 4.65854e-005 -8.18501e-006
437
root  -66.9192 37.4641 -1.08811 -145.727 7.71997 176.028
RightUpLeg  -67.9617 -9.75748 4.28192
RightLeg  41.5993 -6.19827 -6.15624
RightFoot  -5.98605 0.157416 -4.22901
RightToes  0.000482159 0.542163 -0.142577
Spine  70.8267 -3.035 5.07623
Spine1  9.81896 1.09053 -2.1871
HEad  -23.125 -11.6565 8.68539
LeftShoulder1  8.34875 -26.0732 -21.683
LeftArm  -93.8842 -66.9771 40.9162
LeftForeArm  -0.442285 -12.0168 0.562539
LeftHand  -0.25398 0.0180481 5.50724
RightShoulder  -0.013915 6.11226 -9.77304
RightArm  -90.1125 67.5275 -24.3837
RightForeArm  -20.0867 11.2129 0.974262
RightHand  -0.470582 8.54518 -4.39877
LeftUpLeg  -70.9099 21.7513 -28.3381
LeftLeg  35.2292 4.02326 3.41397
LeftFoot  -3.46612 -0.536514 8.08237
LeftToes  1.06247e-005 4.65854e-005 -8.18501e-006
438
root  -67.0014 37.3408 -1.11664 -145.143 6.98222 176.384
RightUpLeg  -68.7843 -9.65524 4.55716
RightLeg  42.3935 -6.6791 -6.78594
RightFoot  -6.2422 0.140868 -4.11072
RightToes  0.000482159 0.542163 -0.142577
Spine  71.8547 -3.43395 5.32371
Spine1  9.68689 1.00039 -2.48627
HEad  -23.7188 -11.2088 9.0526
LeftShoulder1  7.76083 -25.6211 -20.0138
LeftArm  -97.2501 -66.3653 44.1682
LeftForeArm  -0.378262 -12.4103 0.724884
LeftHand  -0.25398 0.0180481 5.50724
RightShoulder  -0.0653644 6.10406 -10.3898
RightArm  -92.3363 66.2846 -26.0213
RightForeArm  -20.5223 11.7994 0.744902
RightHand  -0.406613 8.41351 -3.89733
LeftUpLeg  -71.8507 21.1326 -28.0967
LeftLeg  36.148 3.92092 3.43989
LeftFoot  -3.91757 -0.52024 8.36658
LeftToes  1.06247e-005 4.65854e-005 -8.18501e-006
439
root  -67.0251 37.2425 -1.14365 -144.518 6.28763 176.472
RightUpLeg  -69.5461 -9.58942 4.60389
RightLeg  42.963 -7.11616 -7.34532
RightFoot  -6.61347 0.127047 -4.15428
RightToes  0.000482159 0.542163 -0.142577
Spine  72.7187 -3.60098 5.26708
Spine1  9.46365 0.736001 -2.4244
HEad  -24.1337 -10.6065 9.39551
LeftShoulder1  7.11864 -24.952 -18.287
LeftArm  -99.9795 -65.993 45.9434
LeftForeArm  -0.106114 -13.0009 0.859698
LeftHand  -0.25398 0.0180481 5.50724
RightShoulder  -0.0912572 6.26925 -10.6812
RightArm  -94.0882 65.1675 -26.8887
RightForeArm  -21.2409 12.7943 0.796159
RightHand  -0.415963 8.17308 -4.03153
LeftUpLeg  -72.646 20.3842 -27.9069
LeftLeg  36.8055 3.82655 3.43996
LeftFoot  -4.12197 -0.511553 8.48681
LeftToes  1.06247e-005 4.65854e-005 -8.18501e-006
440
root  -67.0221 37.1561 -1.16169 -143.777 5.90379 176.442
RightUpLeg  -70.476 -9.51923 4.55545
RightLeg  43.4191 -7.36848 -7.70928
RightFoot  -6.89579 0.102365 -3.83579
RightToes  0.000482159 0.542163 -0.142577
Spine  73.3115 -3.52742 5.0024
Spine1  9.12959 0.608147 -2.43712
HEad  -24.4977 -10.2326 9.80837
LeftShoulder1  6.59143 -24.5319 -16.6735
LeftArm  -101.708 -65.7728 46.8656
LeftForeArm  0.0197068 -13.3244 0.97526
LeftHand  -0.25398 0.0180481 5.50724
RightShoulder  -0.121444 6.23981 -11.0413
RightArm  -94.9778 64.1716 -26.8522
RightForeArm  -21.5597 13.6345 0.917591
RightHand  -0.432759 7.98298 -4.2221
LeftUpLeg  -73.4425 19.723 -27.9553
LeftLeg  37.1695 3.81816 3.47461
LeftFoot  -4.36351 -0.490264 8.45661
LeftToes  1.06247e-005 4.65854e-005 -8.18501e-006
441
root  -67.0262 37.089 -1.17539 -143.131 5.49374 176.636
RightUpLeg  -71.2447 -9.65311 5.03033
RightLeg  43.6985 -7.41256 -7.82691
RightFoot  -7.0912 0.0879299 -3.6611
RightToes  0.000482159 0.542163 -0.142577
Spine  73.819 -3.61956 4.95979
Spine1  8.81289 0.61082 -2.74852
HEad  -24.8909 -9.8549 10.0863
LeftShoulder1  6.17926 -24.2969 -15.2842
LeftArm  -102.465 -65.4744 47.5695
LeftForeArm  -0.0173372 -13.3316 1.07927
LeftHand  -0.25398 0.0180481 5.50724
RightShoulder  -0.163739 5.8143 -11.6289
RightArm  -95.8348 63.631 -26.5551
RightForeArm  -21.074 14.0724 0.871782
RightHand  -0.419202 7.98424 -4.10491
LeftUpLeg  -74.1084 19.1576 -27.709
LeftLeg  37.4587 3.90533 3.5792
LeftFoot  -4.68229 -0.458543 8.35211
LeftToes  1.06247e-005 4.65854e-005 -8.18501e-006
442
root  -67.0278 37.0316 -1.18792 -142.748 4.88033 176.938
RightUpLeg  -71.6797 -10.0186 5.84405
RightLeg  43.9047 -7.31899 -7.78842
RightFoot  -7.37294 0.082231 -3.81029
RightToes  0.000482159 0.542163 -0.142577
Spine  74.3136 -3.87671 5.01863
Spine1  8.70224 0.493771 -2.97828
HEad  -25.257 -9.1767 10.0816
LeftShoulder1  5.87616 -23.9666 -14.3804
LeftArm  -102.845 -65.0934 48.3304
LeftForeArm  -0.0516807 -13.2776 1.12702
LeftHand  -0.25398 0.0180481 5.50724
RightShoulder  -0.201499 5.26639 -12.2438
RightArm  -97.4993 63.5917 -26.3415
RightForeArm  -19.9043 14.6163 0.845846
RightHand  -0.381141 7.85171 -3.80463
LeftUpLeg  -74.5383 18.5564 -27.0336
LeftLeg  37.8923 4.06758 3.76541
LeftFoot  -4.93349 -0.435598 8.29868
LeftToes  1.06247e-005 4.65854e-005 -8.18501e-006
443
root  -67.0086 36.9636 -1.19622 -142.572 4.30162 177.07
RightUpLeg  -72.0329 -10.4661 6.47604
RightLeg  44.2839 -7.15646 -7.72457
RightFoot  -7.73836 0.0685235 -3.83656
RightToes  0.000482159 0.542163 -0.142577
Spine  74.7657 -4.02504 4.91469
Spine1  8.59559 0.276907 -2.97178
HEad  -25.5368 -8.49592 9.99913
LeftShoulder1  5.74545 -23.7205 -14.0715
LeftArm  -103.132 -64.9157 48.8907
LeftForeArm  -0.0959066 -13.2213 1.14433
LeftHand  -0.25398 0.0180481 5.50724
RightShoulder  -0.214747 4.95095 -12.5222
RightArm  -98.98 63.6068 -25.9928
RightForeArm  -18.8092 15.4338 1.10779
RightHand  -0.343347 7.28669 -3.59609
LeftUpLeg  -74.8021 17.9136 -26.3056
LeftLeg  38.4536 4.28826 4.02231
LeftFoot  -5.06949 -0.426114 8.32079
LeftToes  1.06247e-005 4.65854e-005 -8.18501e-006
444
root  -66.9768 36.8887 -1.20297 -142.45 3.87642 177.087
RightUpLeg  -72.4764 -10.8984 6.97944
RightLeg  44.8307 -6.996 -7.70362
RightFoot  -8.05252 0.0519731 -3.70451
RightToes  0.000482159 0.542163 -0.142577
Spine  75.0911 -4.02182 4.84461
Spine1  8.41925 0.222806 -2.91935
HEad  -26.0488 -8.13669 10.0788
LeftShoulder1  5.74463 -23.8199 -13.9825
LeftArm  -103.628 -65.1238 49.1392
LeftForeArm  0.0337269 -13.1304 1.23159
LeftHand  -0.25398 0.0180481 5.50724
RightShoulder  -0.203602 4.72419 -12.4474
RightArm  -99.0411 63.3834 -25.7328
RightForeArm  -18.7078 15.927 1.43357
RightHand  -0.339904 6.71309 -3.69455
LeftUpLeg  -75.0086 17.3245 -25.6863
LeftLeg  38.9882 4.50318 4.27874
LeftFoot  -5.17955 -0.415789 8.29036
LeftToes  1.06247e-005 4.65854e-005 -8.18501e-006
